# xmcd
#
# Track frame offsets:
#	150
#	15991
#	38252
#	51377
#	71773
#	90317
#	110742
#	126789
#	141967
#	156979
#	175675
#	190601
#	208388
#
# Disc length: 3022 seconds
#
# Revision: 0
# Processed by: cddbd v1.5.2PL0 Copyright (c) Steve Scherf et al.
# Submitted via: audiograbber 1.83.01
#
DISCID=af0bcc0d
DTITLE=Tino - Tino
DYEAR=1900
DGENRE=DDR
TTITLE0=Blinde Kuh
TTITLE1=Aus der Ferne
TTITLE2=Money
TTITLE3=Ich sterbe für dich
TTITLE4=Unbequemer Geist
TTITLE5=Komm her
TTITLE6=Die kleinen Mädchen
TTITLE7=Laß mich frei
TTITLE8=So gut
TTITLE9=Tief in mir
TTITLE10=Spiel mit Feuer
TTITLE11=Arm in Arm
TTITLE12=Ohne Dich
EXTD=
EXTT0=Tino Eisbrenner
EXTT1=Tino Eisbrenner
EXTT2=Tino Eisbrenner
EXTT3=Tino Eisbrenner
EXTT4=Tino Eisbrenner
EXTT5=Tino Eisbrenner
EXTT6=Tino Eisbrenner
EXTT7=Tino Eisbrenner
EXTT8=Tino Eisbrenner
EXTT9=Tino Eisbrenner
EXTT10=Tino Eisbrenner - Bonustrack 
EXTT11=Tino Eisbrenner - Bonustrack
EXTT12=Tino Eisbrenner - Bonustrack
PLAYORDER=
